<mxfile host="app.diagrams.net" agent="Mozilla/5.0 (Windows NT 10.0; Win64; x64) AppleWebKit/537.36 (KHTML, like Gecko) Chrome/131.0.0.0 Safari/537.36" version="26.0.6">
  <diagram name="第 1 页" id="KDZaYFzsoEYa3pZ85hy7">
    <mxGraphModel dx="2062" dy="1824" grid="1" gridSize="10" guides="1" tooltips="1" connect="1" arrows="1" fold="1" page="1" pageScale="1" pageWidth="827" pageHeight="1169" math="0" shadow="0">
      <root>
        <mxCell id="0" />
        <mxCell id="1" parent="0" />
        <mxCell id="x4WT5agnDmlDmy9kd1mR-1" value="&lt;div&gt;&lt;br&gt;&lt;/div&gt;" style="rounded=1;whiteSpace=wrap;html=1;" vertex="1" parent="1">
          <mxGeometry x="280" y="40" width="284" height="180" as="geometry" />
        </mxCell>
        <mxCell id="x4WT5agnDmlDmy9kd1mR-2" value="&lt;font color=&quot;#1930ff&quot; style=&quot;font-size: 14px;&quot; face=&quot;Comic Sans MS&quot;&gt;Service(HashMap)&lt;/font&gt;" style="rounded=1;whiteSpace=wrap;html=1;" vertex="1" parent="1">
          <mxGeometry x="355" y="50" width="134" height="30" as="geometry" />
        </mxCell>
        <mxCell id="x4WT5agnDmlDmy9kd1mR-3" value="Service" style="rounded=1;whiteSpace=wrap;html=1;" vertex="1" parent="1">
          <mxGeometry x="294" y="130" width="120" height="60" as="geometry" />
        </mxCell>
        <mxCell id="x4WT5agnDmlDmy9kd1mR-4" value="ServiceImpl" style="rounded=1;whiteSpace=wrap;html=1;" vertex="1" parent="1">
          <mxGeometry x="430" y="130" width="120" height="60" as="geometry" />
        </mxCell>
        <mxCell id="x4WT5agnDmlDmy9kd1mR-5" value="key" style="rounded=1;whiteSpace=wrap;html=1;" vertex="1" parent="1">
          <mxGeometry x="314" y="90" width="80" height="30" as="geometry" />
        </mxCell>
        <mxCell id="x4WT5agnDmlDmy9kd1mR-6" value="value" style="rounded=1;whiteSpace=wrap;html=1;" vertex="1" parent="1">
          <mxGeometry x="450" y="90" width="80" height="30" as="geometry" />
        </mxCell>
        <mxCell id="x4WT5agnDmlDmy9kd1mR-7" value="" style="rounded=1;whiteSpace=wrap;html=1;" vertex="1" parent="1">
          <mxGeometry x="50" y="240" width="290" height="520" as="geometry" />
        </mxCell>
        <mxCell id="x4WT5agnDmlDmy9kd1mR-8" value="" style="rounded=1;whiteSpace=wrap;html=1;" vertex="1" parent="1">
          <mxGeometry x="490" y="240" width="290" height="520" as="geometry" />
        </mxCell>
        <mxCell id="x4WT5agnDmlDmy9kd1mR-9" value="&lt;font face=&quot;Comic Sans MS&quot; color=&quot;#1930ff&quot; style=&quot;font-size: 14px;&quot;&gt;Server&lt;/font&gt;" style="rounded=1;whiteSpace=wrap;html=1;" vertex="1" parent="1">
          <mxGeometry x="140" y="250" width="110" height="30" as="geometry" />
        </mxCell>
        <mxCell id="x4WT5agnDmlDmy9kd1mR-10" value="&lt;font style=&quot;font-size: 14px;&quot; color=&quot;#1930ff&quot; face=&quot;Comic Sans MS&quot;&gt;Client&lt;/font&gt;" style="rounded=1;whiteSpace=wrap;html=1;" vertex="1" parent="1">
          <mxGeometry x="580" y="250" width="110" height="30" as="geometry" />
        </mxCell>
        <mxCell id="x4WT5agnDmlDmy9kd1mR-11" value="&lt;h2&gt;&lt;font color=&quot;#ff1f4b&quot; style=&quot;font-size: 18px;&quot; face=&quot;Comic Sans MS&quot;&gt;MyRPC&lt;br&gt;version1.2&lt;/font&gt;&lt;/h2&gt;" style="ellipse;whiteSpace=wrap;html=1;" vertex="1" parent="1">
          <mxGeometry x="20" y="-80" width="120" height="80" as="geometry" />
        </mxCell>
        <mxCell id="x4WT5agnDmlDmy9kd1mR-12" value="" style="edgeStyle=orthogonalEdgeStyle;rounded=0;orthogonalLoop=1;jettySize=auto;html=1;entryX=-0.011;entryY=0.425;entryDx=0;entryDy=0;entryPerimeter=0;" edge="1" parent="1" source="x4WT5agnDmlDmy9kd1mR-13" target="x4WT5agnDmlDmy9kd1mR-1">
          <mxGeometry relative="1" as="geometry">
            <mxPoint x="60" y="130" as="targetPoint" />
            <Array as="points">
              <mxPoint x="20" y="320" />
              <mxPoint x="20" y="116" />
            </Array>
          </mxGeometry>
        </mxCell>
        <mxCell id="x4WT5agnDmlDmy9kd1mR-13" value="服务注册和保存(UserServiceImpl)" style="rounded=1;whiteSpace=wrap;html=1;" vertex="1" parent="1">
          <mxGeometry x="136.5" y="300" width="120" height="40" as="geometry" />
        </mxCell>
        <mxCell id="x4WT5agnDmlDmy9kd1mR-14" value="实例化proxy(serverIP, Port)" style="rounded=1;whiteSpace=wrap;html=1;" vertex="1" parent="1">
          <mxGeometry x="575" y="350" width="120" height="40" as="geometry" />
        </mxCell>
        <mxCell id="x4WT5agnDmlDmy9kd1mR-15" value="" style="edgeStyle=orthogonalEdgeStyle;rounded=0;orthogonalLoop=1;jettySize=auto;html=1;" edge="1" parent="1" source="x4WT5agnDmlDmy9kd1mR-16" target="x4WT5agnDmlDmy9kd1mR-18">
          <mxGeometry relative="1" as="geometry" />
        </mxCell>
        <mxCell id="x4WT5agnDmlDmy9kd1mR-16" value="反射获取UserService代理" style="rounded=1;whiteSpace=wrap;html=1;" vertex="1" parent="1">
          <mxGeometry x="575" y="545" width="120" height="40" as="geometry" />
        </mxCell>
        <mxCell id="x4WT5agnDmlDmy9kd1mR-17" value="补充说明：&lt;div&gt;UserService提供一个方法&lt;/div&gt;&lt;div&gt;getUserById&lt;/div&gt;" style="shape=note;whiteSpace=wrap;html=1;backgroundOutline=1;darkOpacity=0.05;" vertex="1" parent="1">
          <mxGeometry x="690" y="55" width="110" height="135" as="geometry" />
        </mxCell>
        <mxCell id="x4WT5agnDmlDmy9kd1mR-18" value="动态代理调用getUserById" style="rounded=1;whiteSpace=wrap;html=1;" vertex="1" parent="1">
          <mxGeometry x="575" y="620" width="120" height="40" as="geometry" />
        </mxCell>
        <mxCell id="x4WT5agnDmlDmy9kd1mR-19" value="1. 发起请求（UserService, getUserById）" style="text;html=1;align=center;verticalAlign=middle;resizable=0;points=[];autosize=1;strokeColor=none;fillColor=none;" vertex="1" parent="1">
          <mxGeometry x="300" y="610" width="250" height="30" as="geometry" />
        </mxCell>
        <mxCell id="x4WT5agnDmlDmy9kd1mR-20" value="Netty" style="swimlane;whiteSpace=wrap;html=1;" vertex="1" parent="1">
          <mxGeometry x="99" y="435" width="195" height="245" as="geometry" />
        </mxCell>
        <mxCell id="x4WT5agnDmlDmy9kd1mR-21" value="" style="edgeStyle=orthogonalEdgeStyle;rounded=0;orthogonalLoop=1;jettySize=auto;html=1;" edge="1" parent="x4WT5agnDmlDmy9kd1mR-20" source="x4WT5agnDmlDmy9kd1mR-22" target="x4WT5agnDmlDmy9kd1mR-24">
          <mxGeometry relative="1" as="geometry" />
        </mxCell>
        <mxCell id="x4WT5agnDmlDmy9kd1mR-22" value="监听端口" style="rounded=1;whiteSpace=wrap;html=1;" vertex="1" parent="x4WT5agnDmlDmy9kd1mR-20">
          <mxGeometry x="36.5" y="110" width="129" height="25" as="geometry" />
        </mxCell>
        <mxCell id="x4WT5agnDmlDmy9kd1mR-23" value="初始化" style="rounded=1;whiteSpace=wrap;html=1;" vertex="1" parent="x4WT5agnDmlDmy9kd1mR-20">
          <mxGeometry x="36.5" y="45" width="129" height="25" as="geometry" />
        </mxCell>
        <mxCell id="x4WT5agnDmlDmy9kd1mR-24" value="4. method.invoke(serviceImpl, args)" style="rounded=1;whiteSpace=wrap;html=1;" vertex="1" parent="x4WT5agnDmlDmy9kd1mR-20">
          <mxGeometry x="11" y="175" width="180" height="60" as="geometry" />
        </mxCell>
        <mxCell id="x4WT5agnDmlDmy9kd1mR-25" value="" style="endArrow=classic;html=1;rounded=0;exitX=0.5;exitY=1;exitDx=0;exitDy=0;entryX=0.5;entryY=0;entryDx=0;entryDy=0;" edge="1" parent="x4WT5agnDmlDmy9kd1mR-20" source="x4WT5agnDmlDmy9kd1mR-23" target="x4WT5agnDmlDmy9kd1mR-22">
          <mxGeometry width="50" height="50" relative="1" as="geometry">
            <mxPoint x="361" y="45" as="sourcePoint" />
            <mxPoint x="411" y="-5" as="targetPoint" />
          </mxGeometry>
        </mxCell>
        <mxCell id="x4WT5agnDmlDmy9kd1mR-26" value="" style="endArrow=classic;html=1;rounded=0;exitX=0.5;exitY=1;exitDx=0;exitDy=0;entryX=1;entryY=0.75;entryDx=0;entryDy=0;" edge="1" parent="1" source="x4WT5agnDmlDmy9kd1mR-1" target="x4WT5agnDmlDmy9kd1mR-20">
          <mxGeometry width="50" height="50" relative="1" as="geometry">
            <mxPoint x="470" y="450" as="sourcePoint" />
            <mxPoint x="520" y="400" as="targetPoint" />
          </mxGeometry>
        </mxCell>
        <mxCell id="x4WT5agnDmlDmy9kd1mR-27" value="&lt;font style=&quot;font-size: 12px;&quot;&gt;3.返回UserServiceImpl&lt;/font&gt;" style="edgeLabel;html=1;align=center;verticalAlign=middle;resizable=0;points=[];" vertex="1" connectable="0" parent="x4WT5agnDmlDmy9kd1mR-26">
          <mxGeometry x="-0.0105" y="3" relative="1" as="geometry">
            <mxPoint x="52" y="2" as="offset" />
          </mxGeometry>
        </mxCell>
        <mxCell id="x4WT5agnDmlDmy9kd1mR-28" value="5. 返回结果" style="text;html=1;align=center;verticalAlign=middle;resizable=0;points=[];autosize=1;strokeColor=none;fillColor=none;" vertex="1" parent="1">
          <mxGeometry x="382" y="650" width="80" height="30" as="geometry" />
        </mxCell>
        <mxCell id="x4WT5agnDmlDmy9kd1mR-29" value="&lt;font style=&quot;font-size: 14px; color: rgb(255, 31, 75);&quot; face=&quot;Comic Sans MS&quot;&gt;Optimize:Zookeeper&lt;/font&gt;" style="ellipse;shape=cloud;whiteSpace=wrap;html=1;" vertex="1" parent="1">
          <mxGeometry width="190" height="80" as="geometry" />
        </mxCell>
        <mxCell id="x4WT5agnDmlDmy9kd1mR-30" value="&lt;h1 style=&quot;margin-top: 0px;&quot;&gt;&lt;font style=&quot;font-size: 12px;&quot;&gt;Netty Initialize&lt;/font&gt;&lt;/h1&gt;&lt;p&gt;&lt;font&gt;1. 创建NIO连接&lt;/font&gt;&lt;/p&gt;&lt;p&gt;&lt;font&gt;2. 定义消息格式（解决粘包问题）&lt;/font&gt;&lt;/p&gt;&lt;p&gt;&lt;font&gt;3. 计算消息长度&lt;/font&gt;&lt;/p&gt;&lt;p&gt;&lt;font&gt;4. 定义编解码器&lt;/font&gt;&lt;/p&gt;&lt;p&gt;&lt;font&gt;5. 定义handler&lt;/font&gt;&lt;/p&gt;&lt;p&gt;&lt;font&gt;&lt;span style=&quot;white-space: pre;&quot;&gt;&#x9;&lt;/span&gt;5.1 定义通信后接收的逻辑&lt;br&gt;&lt;/font&gt;&lt;/p&gt;&lt;p&gt;&lt;font style=&quot;&quot;&gt;&lt;font&gt;&lt;span style=&quot;white-space: pre;&quot;&gt;&#x9;&lt;/span&gt;5.2 定义异常处理逻辑&lt;/font&gt;&lt;br&gt;&lt;/font&gt;&lt;/p&gt;" style="text;html=1;whiteSpace=wrap;overflow=hidden;rounded=0;" vertex="1" parent="1">
          <mxGeometry x="800" y="380" width="180" height="320" as="geometry" />
        </mxCell>
        <mxCell id="x4WT5agnDmlDmy9kd1mR-31" value="Netty" style="swimlane;whiteSpace=wrap;html=1;" vertex="1" parent="1">
          <mxGeometry x="535" y="440" width="200" height="240" as="geometry" />
        </mxCell>
        <mxCell id="x4WT5agnDmlDmy9kd1mR-32" value="" style="endArrow=classic;html=1;rounded=0;exitX=0.5;exitY=1;exitDx=0;exitDy=0;entryX=0.5;entryY=0;entryDx=0;entryDy=0;" edge="1" parent="1" source="x4WT5agnDmlDmy9kd1mR-14" target="x4WT5agnDmlDmy9kd1mR-31">
          <mxGeometry width="50" height="50" relative="1" as="geometry">
            <mxPoint x="430" y="570" as="sourcePoint" />
            <mxPoint x="480" y="520" as="targetPoint" />
          </mxGeometry>
        </mxCell>
        <mxCell id="x4WT5agnDmlDmy9kd1mR-33" value="&lt;h1 style=&quot;margin-top: 0px;&quot;&gt;&lt;font style=&quot;font-size: 12px;&quot;&gt;Netty Initialize&lt;/font&gt;&lt;/h1&gt;&lt;p&gt;具体设置类似客户端&lt;/p&gt;" style="text;html=1;whiteSpace=wrap;overflow=hidden;rounded=0;align=right;" vertex="1" parent="1">
          <mxGeometry x="-140" y="462.5" width="180" height="95" as="geometry" />
        </mxCell>
        <mxCell id="x4WT5agnDmlDmy9kd1mR-34" value="" style="endArrow=classic;html=1;rounded=0;exitX=0.5;exitY=1;exitDx=0;exitDy=0;entryX=0.5;entryY=0;entryDx=0;entryDy=0;" edge="1" parent="1" source="x4WT5agnDmlDmy9kd1mR-13" target="x4WT5agnDmlDmy9kd1mR-20">
          <mxGeometry width="50" height="50" relative="1" as="geometry">
            <mxPoint x="460" y="480" as="sourcePoint" />
            <mxPoint x="510" y="430" as="targetPoint" />
          </mxGeometry>
        </mxCell>
        <mxCell id="x4WT5agnDmlDmy9kd1mR-35" value="" style="edgeStyle=orthogonalEdgeStyle;rounded=0;orthogonalLoop=1;jettySize=auto;html=1;" edge="1" parent="1" source="x4WT5agnDmlDmy9kd1mR-36" target="x4WT5agnDmlDmy9kd1mR-16">
          <mxGeometry relative="1" as="geometry" />
        </mxCell>
        <mxCell id="x4WT5agnDmlDmy9kd1mR-36" value="初始化" style="rounded=1;whiteSpace=wrap;html=1;" vertex="1" parent="1">
          <mxGeometry x="577.5" y="470" width="115" height="30" as="geometry" />
        </mxCell>
        <mxCell id="x4WT5agnDmlDmy9kd1mR-37" value="" style="endArrow=classic;html=1;rounded=0;exitX=0;exitY=0.5;exitDx=0;exitDy=0;entryX=1;entryY=0.5;entryDx=0;entryDy=0;" edge="1" parent="1" source="x4WT5agnDmlDmy9kd1mR-18" target="x4WT5agnDmlDmy9kd1mR-24">
          <mxGeometry width="50" height="50" relative="1" as="geometry">
            <mxPoint x="460" y="480" as="sourcePoint" />
            <mxPoint x="510" y="430" as="targetPoint" />
          </mxGeometry>
        </mxCell>
        <mxCell id="x4WT5agnDmlDmy9kd1mR-38" value="" style="endArrow=classic;html=1;rounded=0;exitX=0.895;exitY=0.022;exitDx=0;exitDy=0;exitPerimeter=0;entryX=0.333;entryY=1.004;entryDx=0;entryDy=0;entryPerimeter=0;" edge="1" parent="1" source="x4WT5agnDmlDmy9kd1mR-24" target="x4WT5agnDmlDmy9kd1mR-1">
          <mxGeometry width="50" height="50" relative="1" as="geometry">
            <mxPoint x="460" y="360" as="sourcePoint" />
            <mxPoint x="510" y="310" as="targetPoint" />
          </mxGeometry>
        </mxCell>
        <mxCell id="x4WT5agnDmlDmy9kd1mR-39" value="" style="endArrow=classic;html=1;rounded=0;exitX=1;exitY=0.75;exitDx=0;exitDy=0;entryX=0;entryY=0.75;entryDx=0;entryDy=0;" edge="1" parent="1" source="x4WT5agnDmlDmy9kd1mR-24" target="x4WT5agnDmlDmy9kd1mR-18">
          <mxGeometry width="50" height="50" relative="1" as="geometry">
            <mxPoint x="460" y="480" as="sourcePoint" />
            <mxPoint x="510" y="430" as="targetPoint" />
          </mxGeometry>
        </mxCell>
        <mxCell id="x4WT5agnDmlDmy9kd1mR-40" value="2. 获取实体类 UserServiceImpl" style="text;html=1;align=center;verticalAlign=middle;whiteSpace=wrap;rounded=0;" vertex="1" parent="1">
          <mxGeometry x="160" y="280" width="290" height="30" as="geometry" />
        </mxCell>
        <mxCell id="x4WT5agnDmlDmy9kd1mR-41" value="&lt;div&gt;&lt;br&gt;&lt;/div&gt;" style="rounded=1;whiteSpace=wrap;html=1;" vertex="1" parent="1">
          <mxGeometry x="283" y="810" width="284" height="180" as="geometry" />
        </mxCell>
        <mxCell id="x4WT5agnDmlDmy9kd1mR-42" value="Zookeeper" style="rounded=1;whiteSpace=wrap;html=1;" vertex="1" parent="1">
          <mxGeometry x="362" y="830" width="128" height="30" as="geometry" />
        </mxCell>
        <mxCell id="x4WT5agnDmlDmy9kd1mR-43" value="Service" style="rounded=1;whiteSpace=wrap;html=1;" vertex="1" parent="1">
          <mxGeometry x="294" y="890" width="120" height="60" as="geometry" />
        </mxCell>
        <mxCell id="x4WT5agnDmlDmy9kd1mR-44" value="ServerIP:Port" style="rounded=1;whiteSpace=wrap;html=1;" vertex="1" parent="1">
          <mxGeometry x="440" y="890" width="120" height="60" as="geometry" />
        </mxCell>
        <mxCell id="x4WT5agnDmlDmy9kd1mR-46" value="服务发现（&lt;div&gt;serverIP， Port）&lt;/div&gt;" style="rounded=1;whiteSpace=wrap;html=1;" vertex="1" parent="1">
          <mxGeometry x="572.5" y="300" width="125" height="30" as="geometry" />
        </mxCell>
        <mxCell id="x4WT5agnDmlDmy9kd1mR-50" value="" style="endArrow=classic;html=1;rounded=0;exitX=0.5;exitY=1;exitDx=0;exitDy=0;" edge="1" parent="1" source="x4WT5agnDmlDmy9kd1mR-46">
          <mxGeometry width="50" height="50" relative="1" as="geometry">
            <mxPoint x="550" y="530" as="sourcePoint" />
            <mxPoint x="635" y="350" as="targetPoint" />
          </mxGeometry>
        </mxCell>
        <mxCell id="x4WT5agnDmlDmy9kd1mR-53" value="" style="endArrow=classic;html=1;rounded=0;entryX=0.011;entryY=0.579;entryDx=0;entryDy=0;entryPerimeter=0;" edge="1" parent="1" target="x4WT5agnDmlDmy9kd1mR-41">
          <mxGeometry width="50" height="50" relative="1" as="geometry">
            <mxPoint x="20" y="320" as="sourcePoint" />
            <mxPoint x="530" y="440" as="targetPoint" />
            <Array as="points">
              <mxPoint x="20" y="914" />
            </Array>
          </mxGeometry>
        </mxCell>
        <mxCell id="x4WT5agnDmlDmy9kd1mR-56" value="" style="endArrow=classic;startArrow=classic;html=1;rounded=0;entryX=1;entryY=0.5;entryDx=0;entryDy=0;exitX=1.01;exitY=0.596;exitDx=0;exitDy=0;exitPerimeter=0;" edge="1" parent="1" source="x4WT5agnDmlDmy9kd1mR-41" target="x4WT5agnDmlDmy9kd1mR-46">
          <mxGeometry width="50" height="50" relative="1" as="geometry">
            <mxPoint x="440" y="620" as="sourcePoint" />
            <mxPoint x="490" y="570" as="targetPoint" />
            <Array as="points">
              <mxPoint x="1040" y="917" />
              <mxPoint x="1040" y="320" />
            </Array>
          </mxGeometry>
        </mxCell>
        <mxCell id="x4WT5agnDmlDmy9kd1mR-57" value="&lt;font style=&quot;font-size: 16px;&quot;&gt;从Zookeeper中查询&lt;/font&gt;" style="edgeLabel;html=1;align=center;verticalAlign=middle;resizable=0;points=[];" vertex="1" connectable="0" parent="x4WT5agnDmlDmy9kd1mR-56">
          <mxGeometry x="0.2367" y="-1" relative="1" as="geometry">
            <mxPoint as="offset" />
          </mxGeometry>
        </mxCell>
      </root>
    </mxGraphModel>
  </diagram>
</mxfile>
